<svg width="149" height="150" viewBox="0 0 149 150" fill="none" xmlns="http://www.w3.org/2000/svg">
<path d="M86.4022 18.04C85.2458 17.8431 84.2011 17.4489 83.2681 16.8574C82.3371 16.2542 81.5498 15.5132 80.9061 14.6344C80.2741 13.7576 79.8265 12.7859 79.5633 11.7195C79.3002 10.653 79.265 9.55327 79.4579 8.42022C79.6508 7.28717 80.0478 6.26099 80.649 5.34169C81.2502 4.42238 81.9941 3.65356 82.8806 3.03523C83.7788 2.41888 84.766 1.98596 85.8421 1.73645C86.9203 1.47526 88.0375 1.44309 89.1939 1.63994C90.2335 1.81691 91.1859 2.15331 92.051 2.64914C92.9162 3.14497 93.6581 3.76407 94.277 4.50644L92.757 8.03382C92.4481 7.23603 91.9558 6.52722 91.28 5.90737C90.6063 5.27584 89.773 4.87557 88.7801 4.70656C87.8339 4.5455 86.9356 4.63297 86.0851 4.96897C85.2483 5.29528 84.5414 5.81196 83.9643 6.51903C83.3892 7.21441 83.0201 8.04102 82.857 8.99885C82.696 9.94501 82.7708 10.8472 83.0814 11.7054C83.3921 12.5635 83.8873 13.2909 84.567 13.8874C85.2604 14.4741 86.0802 14.8481 87.0263 15.0091C88.0075 15.1762 88.9195 15.079 89.7623 14.7176C90.6187 14.3466 91.3247 13.8358 91.8801 13.1851L92.1474 17.0167C91.3081 17.4989 90.3972 17.8366 89.4148 18.0299C88.446 18.2136 87.4418 18.2169 86.4022 18.04Z" fill="#FEFEFE"/>
<path d="M101.874 22.8126C101.212 22.4674 100.669 21.9838 100.245 21.3617C99.8266 20.7292 99.5925 20.0124 99.5426 19.2113C99.5086 18.4051 99.7191 17.566 100.174 16.6941L103.125 11.0366L105.867 12.4667L103.105 17.7617C102.831 18.287 102.745 18.8367 102.846 19.4108C102.958 19.9904 103.303 20.4309 103.881 20.7323C104.354 20.9788 104.862 21.0299 105.405 20.8855C105.964 20.7361 106.41 20.3409 106.745 19.7001L109.523 14.3736L112.265 15.8037L107.333 25.259L104.843 23.9604L105.361 22.9676C104.806 23.2125 104.221 23.3217 103.607 23.2953C103.008 23.2639 102.431 23.103 101.874 22.8126Z" fill="#FEFEFE"/>
<path d="M113.096 29.0396L120.127 21.0218L122.211 22.8499L121.004 24.2263C121.687 24.0053 122.347 23.9536 122.984 24.0714C123.638 24.188 124.251 24.4963 124.821 24.9963L123.524 27.4995C123.401 27.2976 123.233 27.1029 123.02 26.9154C122.351 26.3295 121.621 26.0751 120.828 26.1523C120.044 26.2205 119.3 26.6555 118.597 27.4573L115.421 31.0786L113.096 29.0396Z" fill="#FEFEFE"/>
<path d="M121.81 37.1928L130.115 30.5043L132.055 32.9129L123.749 39.6015L121.81 37.1928ZM132.289 30.7388C132 30.3789 131.879 29.974 131.927 29.5242C131.976 29.0743 132.18 28.7045 132.54 28.4147C132.909 28.1174 133.314 27.9967 133.755 28.0527C134.205 28.1012 134.574 28.3054 134.864 28.6653C135.162 29.0345 135.282 29.4393 135.226 29.8799C135.187 30.3223 134.983 30.6922 134.614 30.9894C134.254 31.2793 133.849 31.3999 133.399 31.3514C132.957 31.3121 132.587 31.1079 132.289 30.7388Z" fill="#FEFEFE"/>
<path d="M129.907 49.6104C129.372 48.5399 129.123 47.4854 129.16 46.4468C129.198 45.4082 129.489 44.4677 130.035 43.6252C130.592 42.7774 131.373 42.102 132.38 41.5987C133.345 41.1167 134.309 40.9128 135.274 40.9872C136.249 41.0562 137.141 41.3584 137.952 41.8937C138.768 42.4397 139.406 43.1737 139.867 44.0958C140.339 45.0391 140.543 45.9903 140.479 46.9494C140.426 47.9032 140.134 48.7775 139.604 49.5723C139.079 50.3776 138.345 51.016 137.402 51.4875L136.432 51.9722L133.524 46.1534C133.392 45.8884 133.28 45.6261 133.19 45.3664C133.1 45.1068 133.016 44.8445 132.936 44.5795C132.364 45.0245 132.001 45.5968 131.847 46.2962C131.709 47.0009 131.836 47.7455 132.228 48.5298C132.53 49.1339 132.922 49.6136 133.404 49.9687C133.892 50.3344 134.392 50.5809 134.906 50.7081L132.728 52.5518C132.129 52.255 131.589 51.8495 131.107 51.3354C130.63 50.832 130.23 50.2569 129.907 49.6104ZM134.574 43.6816C134.955 44.1533 135.273 44.6435 135.527 45.1522L136.37 46.8374C136.518 47.1342 136.648 47.4204 136.759 47.6959C136.87 47.9715 136.957 48.2391 137.021 48.4988C137.514 48.0538 137.819 47.5372 137.935 46.949C138.057 46.3714 137.965 45.7753 137.657 45.1605C137.366 44.5776 136.942 44.1536 136.386 43.8885C135.845 43.6288 135.241 43.5598 134.574 43.6816Z" fill="#FEFEFE"/>
<path d="M135.316 64.0681C135.181 63.3339 135.229 62.6084 135.459 61.8917C135.701 61.1728 136.123 60.5475 136.724 60.0159C137.339 59.4937 138.131 59.1441 139.098 58.967L145.374 57.8179L145.931 60.86L140.057 61.9354C139.474 62.042 138.988 62.3118 138.597 62.7447C138.209 63.1892 138.073 63.732 138.19 64.3731C138.286 64.8975 138.558 65.3296 139.006 65.6693C139.467 66.0184 140.054 66.1279 140.765 65.9978L146.674 64.916L147.231 67.958L136.741 69.8784L136.235 67.1161L137.337 66.9144C136.802 66.6268 136.357 66.2326 136 65.7317C135.657 65.2404 135.429 64.6859 135.316 64.0681Z" fill="#FEFEFE"/>
<path d="M137.491 75.9808L142.736 80.0997L148.095 77.1483L147.818 80.5495L146.104 81.4441C145.893 81.5577 145.67 81.6644 145.436 81.7642C145.201 81.8758 144.961 81.981 144.715 82.0799C144.941 82.229 145.155 82.3713 145.358 82.5067C145.572 82.6549 145.779 82.8026 145.981 82.9499L147.529 84.0925L147.255 87.4583L142.446 83.6603L136.601 86.893L136.881 83.4563L139.319 82.2106C139.493 82.1178 139.673 82.0255 139.859 81.9336C140.056 81.8428 140.247 81.7573 140.432 81.6773C140.263 81.5683 140.088 81.453 139.908 81.3313C139.739 81.2106 139.577 81.0904 139.42 80.9706L137.216 79.3465L137.491 75.9808Z" fill="#FEFEFE"/>
<path d="M133.461 89.3777C134.03 90.0672 134.732 90.7016 135.566 91.281C136.4 91.8604 137.421 92.3202 138.63 92.6604L137.822 95.5347C136.749 95.233 135.777 94.8177 134.904 94.289C134.028 93.7716 133.266 93.1325 132.619 92.3718L133.461 89.3777Z" fill="#FEFEFE"/>
<path d="M126.216 112.044C126.807 111.258 127.547 110.695 128.438 110.356C129.33 110.018 130.257 109.906 131.222 110.023C132.189 110.156 133.084 110.531 133.909 111.15C134.734 111.769 135.345 112.524 135.743 113.415C136.134 114.315 136.286 115.237 136.201 116.18C136.125 117.131 135.792 117.999 135.201 118.786C134.789 119.336 134.313 119.763 133.772 120.069C133.241 120.381 132.684 120.571 132.101 120.637L132.969 121.288L131.369 123.42L122.839 117.02L124.439 114.888L125.306 115.539C125.206 114.96 125.228 114.369 125.37 113.765C125.522 113.168 125.804 112.594 126.216 112.044ZM128.168 113.975C127.855 114.392 127.675 114.849 127.627 115.347C127.58 115.845 127.657 116.325 127.858 116.787C128.052 117.258 128.362 117.654 128.789 117.974C129.215 118.294 129.682 118.481 130.189 118.536C130.689 118.6 131.172 118.54 131.636 118.355C132.101 118.17 132.489 117.869 132.802 117.452C133.115 117.035 133.295 116.578 133.343 116.08C133.39 115.583 133.317 115.098 133.123 114.626C132.921 114.164 132.607 113.773 132.181 113.453C131.754 113.133 131.291 112.941 130.791 112.877C130.284 112.822 129.798 112.888 129.334 113.072C128.869 113.257 128.481 113.558 128.168 113.975Z" fill="#FEFEFE"/>
<path d="M114.602 124.547C115.201 124.101 115.872 123.822 116.617 123.711C117.368 123.609 118.116 123.71 118.859 124.013C119.6 124.333 120.264 124.887 120.851 125.676L124.664 130.792L122.184 132.64L118.616 127.851C118.262 127.376 117.804 127.06 117.243 126.902C116.672 126.75 116.126 126.87 115.603 127.259C115.176 127.578 114.909 128.013 114.803 128.565C114.694 129.133 114.856 129.707 115.288 130.287L118.877 135.104L116.397 136.952L110.026 128.4L112.278 126.722L112.947 127.62C112.967 127.014 113.123 126.439 113.414 125.898C113.703 125.373 114.099 124.922 114.602 124.547Z" fill="#FEFEFE"/>
<path d="M102.967 132.421L106.202 139.969L108.032 139.185L108.998 141.439L107.119 142.244L108.519 145.512L105.775 146.688L104.375 143.42L102.43 144.254L101.464 141.999L103.359 141.187L100.125 133.64L102.967 132.421Z" fill="#FEFEFE"/>
<path d="M88.1391 136.984C89.1792 136.81 90.1737 136.903 91.1224 137.261C92.0712 137.619 92.8739 138.182 93.5306 138.949C94.1756 139.718 94.584 140.617 94.7557 141.646C94.9294 142.686 94.8352 143.669 94.4731 144.594C94.1014 145.533 93.525 146.326 92.7441 146.973C91.9631 147.62 91.0526 148.03 90.0124 148.204C88.9606 148.379 87.9661 148.287 87.029 147.927C86.0803 147.569 85.2834 147.005 84.6384 146.236C83.9837 145.48 83.5695 144.583 83.3958 143.542C83.2241 142.514 83.3241 141.53 83.6959 140.591C84.056 139.654 84.6265 138.862 85.4074 138.215C86.1767 137.57 87.0872 137.16 88.1391 136.984ZM88.5957 139.719C88.0698 139.807 87.6179 140.014 87.2401 140.342C86.8506 140.671 86.5692 141.072 86.396 141.546C86.2131 142.033 86.1655 142.539 86.2533 143.065C86.3431 143.603 86.5526 144.066 86.8819 144.456C87.1996 144.847 87.596 145.136 88.0714 145.32C88.5351 145.507 89.0299 145.557 89.5558 145.469C90.0817 145.381 90.5394 145.173 90.9289 144.843C91.3067 144.516 91.5881 144.115 91.773 143.639C91.9462 143.166 91.988 142.66 91.8982 142.123C91.8104 141.597 91.6067 141.132 91.2871 140.729C90.9578 140.34 90.5613 140.051 90.0976 139.865C89.6223 139.68 89.1216 139.631 88.5957 139.719Z" fill="#FEFEFE"/>
<path d="M75.8578 138.838L74.5925 149.427L71.8394 149.098L71.9786 147.933C71.5431 148.382 71.0333 148.703 70.4494 148.896C69.8655 149.089 69.2559 149.147 68.6206 149.071C67.8676 148.981 67.1894 148.715 66.5859 148.273C65.9692 147.841 65.5023 147.255 65.1853 146.513C64.855 145.781 64.7483 144.927 64.865 143.951L65.6221 137.615L68.6928 137.982L67.9842 143.912C67.9139 144.5 68.0278 145.044 68.3259 145.545C68.6241 146.047 69.1025 146.336 69.7614 146.415C70.2908 146.478 70.7891 146.353 71.2563 146.039C71.7102 145.735 71.9829 145.201 72.0743 144.436L72.7871 138.471L75.8578 138.838Z" fill="#FEFEFE"/>
<path d="M54.2033 133.94C55.1725 134.356 55.9597 134.97 56.5648 135.784C57.1698 136.598 57.5415 137.505 57.6798 138.505C57.8072 139.501 57.6654 140.478 57.2545 141.437C56.839 142.406 56.2289 143.182 55.4244 143.765C54.6044 144.355 53.6911 144.711 52.6844 144.834C51.6778 144.956 50.6898 144.81 49.7206 144.394C48.7405 143.974 47.9534 143.359 47.3592 142.55C46.7541 141.736 46.3878 140.832 46.2604 139.836C46.1175 138.846 46.2538 137.867 46.6694 136.898C47.0803 135.939 47.6958 135.166 48.5158 134.576C49.325 133.982 50.2329 133.623 51.2395 133.501C52.2353 133.373 53.2232 133.52 54.2033 133.94ZM53.1107 136.488C52.6206 136.278 52.1282 136.209 51.6334 136.28C51.1278 136.347 50.6742 136.533 50.2727 136.838C49.8557 137.149 49.5421 137.549 49.332 138.039C49.1172 138.54 49.0432 139.044 49.11 139.549C49.1659 140.05 49.344 140.507 49.6442 140.919C49.9335 141.327 50.3232 141.636 50.8133 141.846C51.3033 142.056 51.8012 142.128 52.3068 142.061C52.8016 141.99 53.2552 141.804 53.6675 141.504C54.069 141.199 54.3771 140.796 54.5919 140.295C54.802 139.805 54.8815 139.304 54.8302 138.792C54.7634 138.286 54.5854 137.83 54.296 137.422C53.9958 137.01 53.6007 136.698 53.1107 136.488Z" fill="#FEFEFE"/>
<path d="M42.3904 129.141L35.0999 136.923L33.0764 135.028L33.8784 134.172C33.2614 134.276 32.6606 134.233 32.076 134.042C31.4827 133.843 30.9612 133.534 30.5116 133.112C30.0532 132.683 29.71 132.183 29.4818 131.612C29.2535 131.041 29.1712 130.444 29.2347 129.822C28.5918 129.902 27.9564 129.826 27.3285 129.595C26.7006 129.364 26.123 129.001 25.5955 128.507C25.042 127.989 24.6447 127.373 24.4034 126.66C24.1541 125.956 24.1089 125.215 24.268 124.439C24.419 123.671 24.8225 122.937 25.4787 122.236L29.938 117.476L32.195 119.59L28.0394 124.026C27.6506 124.441 27.4274 124.922 27.3698 125.469C27.3122 126.016 27.5126 126.504 27.9709 126.933C28.213 127.16 28.5032 127.318 28.8415 127.408C29.163 127.498 29.5022 127.491 29.8593 127.387C30.1996 127.284 30.5318 127.059 30.8558 126.713L35.0357 122.251L37.2927 124.365L33.1371 128.802C32.8779 129.078 32.6911 129.39 32.5767 129.738C32.4537 130.077 32.4314 130.422 32.5099 130.771C32.5797 131.113 32.766 131.425 33.0686 131.709C33.3107 131.935 33.6009 132.094 33.9392 132.183C34.2607 132.273 34.6 132.266 34.957 132.162C35.2974 132.059 35.6295 131.834 35.9535 131.489L40.1334 127.026L42.3904 129.141Z" fill="#FEFEFE"/>
<path d="M23.1773 106.412C23.7258 107.476 23.988 108.527 23.9639 109.566C23.9398 110.605 23.6601 111.55 23.1249 112.399C22.5791 113.254 21.806 113.939 20.8056 114.455C19.8473 114.949 18.8855 115.165 17.9202 115.103C16.9444 115.046 16.0478 114.755 15.2304 114.23C14.4076 113.695 13.76 112.969 13.2875 112.053C12.8041 111.115 12.5883 110.167 12.6399 109.207C12.6809 108.253 12.9614 107.375 13.4814 106.573C13.9959 105.761 14.7218 105.114 15.659 104.63L16.6226 104.133L19.6042 109.915C19.74 110.178 19.8545 110.439 19.9478 110.698C20.0412 110.956 20.1292 111.217 20.212 111.481C20.7787 111.029 21.1345 110.452 21.2794 109.751C21.4084 109.045 21.2719 108.302 20.87 107.522C20.5605 106.922 20.1624 106.447 19.6758 106.099C19.1837 105.739 18.6799 105.499 18.1644 105.378L20.3191 103.507C20.9215 103.796 21.4671 104.195 21.9556 104.703C22.4388 105.2 22.846 105.77 23.1773 106.412ZM18.5859 112.4C18.1986 111.933 17.8745 111.447 17.6138 110.941L16.7503 109.267C16.5982 108.972 16.4649 108.688 16.3501 108.413C16.2354 108.139 16.1447 107.873 16.0778 107.614C15.5906 108.065 15.2924 108.586 15.1832 109.175C15.0685 109.754 15.1687 110.349 15.4837 110.96C15.7824 111.539 16.2116 111.958 16.7712 112.216C17.3149 112.469 17.9198 112.53 18.5859 112.4Z" fill="#FEFEFE"/>
<path d="M21.3738 97.0118C20.5314 96.7124 19.6037 96.5282 18.5905 96.4592C17.5774 96.3903 16.4647 96.5202 15.2525 96.849L14.4709 93.9672C15.5458 93.6756 16.5936 93.5326 17.6141 93.5382C18.6315 93.5323 19.6133 93.6896 20.5596 94.0099L21.3738 97.0118Z" fill="#FEFEFE"/>
<path d="M15.5119 78.7873L4.8531 78.4515L4.95049 75.3604L15.6093 75.6963L15.5119 78.7873ZM3.35627 76.8573C3.34172 77.3192 3.16952 77.7049 2.83969 78.0146C2.50985 78.3243 2.11399 78.4719 1.65211 78.4573C1.17839 78.4424 0.792601 78.2702 0.494756 77.9407C0.185069 77.6109 0.0375019 77.215 0.0520548 76.7532C0.0669809 76.2794 0.239176 75.8937 0.56864 75.5958C0.886636 75.2858 1.28249 75.1382 1.75622 75.1531C2.2181 75.1677 2.60388 75.3399 2.91357 75.6697C3.22363 75.9877 3.3712 76.3836 3.35627 76.8573Z" fill="#FEFEFE"/>
<path d="M15.7814 69.3801L5.43024 66.8157L6.09697 64.1244L7.2356 64.4065C6.84372 63.9188 6.58823 63.3733 6.46912 62.77C6.35 62.1668 6.36738 61.5546 6.52124 60.9336C6.70359 60.1975 7.0514 59.5573 7.56464 59.0131C8.06924 58.4545 8.70927 58.0637 9.48472 57.8408C10.2515 57.6035 11.1122 57.6031 12.0668 57.8396L18.2603 59.3739L17.5166 62.3758L11.72 60.9397C11.1449 60.7973 10.5903 60.843 10.0563 61.0769C9.52229 61.3108 9.1755 61.7498 9.01594 62.3939C8.88772 62.9115 8.9506 63.4214 9.20456 63.9238C9.44988 64.4118 9.94632 64.7484 10.6939 64.9336L16.5251 66.3782L15.7814 69.3801Z" fill="#FEFEFE"/>
<path d="M23.0684 49.5267L10.4392 49.2523L12.0928 46.2469L15.9035 46.4367C16.2373 46.4445 16.5654 46.4627 16.8878 46.4913C17.1998 46.5142 17.5481 46.5571 17.9327 46.62C17.6737 46.3287 17.4511 46.0574 17.2648 45.8062C17.068 45.5492 16.8771 45.2818 16.6918 45.0041L14.4917 41.8867L16.0767 39.0059L23.0684 49.5267Z" fill="#FEFEFE"/>
<path d="M31.8745 36.7604C31.0468 37.6248 30.1377 38.2143 29.1473 38.5291C28.1568 38.8439 27.173 38.8862 26.1959 38.6559C25.2102 38.4175 24.3109 37.909 23.4979 37.1305C22.7191 36.3847 22.2023 35.5453 21.9474 34.6122C21.684 33.6709 21.6677 32.7285 21.8987 31.7849C22.1379 30.8327 22.6139 29.9844 23.3269 29.2398C24.0562 28.4781 24.8832 27.9658 25.8077 27.7027C26.7237 27.4314 27.6451 27.4115 28.572 27.6428C29.507 27.8656 30.3554 28.3416 31.117 29.071L31.9001 29.8208L27.401 34.5192C27.1962 34.7331 26.9867 34.9262 26.7725 35.0985C26.5583 35.2707 26.3399 35.4389 26.1172 35.603C26.729 35.992 27.3901 36.141 28.1005 36.0502C28.8105 35.9427 29.4687 35.5722 30.0751 34.9389C30.5422 34.4511 30.8618 33.9204 31.0337 33.3468C31.2138 32.7647 31.2773 32.2102 31.2239 31.6834L33.6936 33.1132C33.6158 33.7769 33.4161 34.4224 33.0945 35.0495C32.781 35.6681 32.3744 36.2384 31.8745 36.7604ZM24.7201 34.3636C25.0357 33.8455 25.3902 33.3811 25.7836 32.9703L27.0866 31.6096C27.316 31.37 27.5418 31.1514 27.7638 30.9538C27.9858 30.7563 28.2083 30.5838 28.4314 30.4365C27.8463 30.1224 27.2572 30.0094 26.6641 30.0977C26.0792 30.1774 25.5491 30.4655 25.0738 30.9618C24.6231 31.4325 24.3667 31.9744 24.3045 32.5876C24.242 33.1839 24.3805 33.7759 24.7201 34.3636Z" fill="#FEFEFE"/>
<path d="M43.0372 27.2369C42.425 27.6212 41.7398 27.9115 40.9816 28.1077C40.2334 28.2976 39.5766 28.3322 39.0112 28.2115L38.1086 25.3365C38.6516 25.5552 39.2735 25.6544 39.9743 25.6342C40.6852 25.6076 41.3166 25.4211 41.8685 25.0746C42.2398 24.8415 42.4616 24.6043 42.534 24.363C42.6164 24.1154 42.5946 23.8912 42.4686 23.6905C42.3237 23.4597 42.1344 23.3477 41.9008 23.3544C41.6609 23.3512 41.4286 23.3711 41.2039 23.4142L39.637 23.7264C39.2868 23.7924 38.8711 23.8435 38.3902 23.8796C37.9092 23.9157 37.423 23.8432 36.9315 23.6621C36.4501 23.4747 36.0298 23.095 35.6707 22.5229C35.3431 22.0011 35.1712 21.4375 35.1549 20.8322C35.1386 20.2268 35.2913 19.6343 35.6129 19.0546C35.9382 18.4587 36.4522 17.9402 37.1546 17.4991C37.8069 17.0896 38.4833 16.8189 39.1839 16.6868C39.8945 16.5485 40.4653 16.5329 40.8964 16.6401L41.7874 19.3964C41.169 19.1691 40.5515 19.088 39.9349 19.1533C39.3221 19.2023 38.805 19.3591 38.3835 19.6237C38.0624 19.8253 37.8675 20.0386 37.7988 20.2635C37.7302 20.4885 37.7495 20.6863 37.8566 20.8569C37.9385 20.9873 38.0705 21.0863 38.2528 21.1537C38.4388 21.2049 38.6887 21.2019 39.0026 21.1447L40.4508 20.8441C40.8676 20.7503 41.3297 20.6841 41.837 20.6454C42.3544 20.6004 42.8619 20.6735 43.3597 20.8646C43.8512 21.0458 44.2922 21.4474 44.6828 22.0696C45.2309 22.9427 45.3521 23.8599 45.0463 24.8214C44.7505 25.7765 44.0808 26.5817 43.0372 27.2369Z" fill="#FEFEFE"/>
<path d="M52.3579 21.7237L49.5186 14.0189L47.6507 14.7072L46.8026 12.4058L48.7205 11.699L47.4913 8.36361L50.2931 7.33113L51.5222 10.6665L53.5068 9.9352L54.3549 12.2366L52.4204 12.9495L55.2597 20.6543L52.3579 21.7237Z" fill="#FEFEFE"/>
<path d="M62.536 18.3911L60.6504 7.89508L63.6943 7.34826L65.5798 17.8443L62.536 18.3911ZM61.8989 6.09975C61.4441 6.18146 61.031 6.09316 60.6595 5.83484C60.2881 5.57653 60.0615 5.21996 59.9798 4.76513C59.896 4.29864 59.9843 3.8855 60.2447 3.52571C60.503 3.15427 60.8596 2.92769 61.3144 2.84598C61.7809 2.76217 62.194 2.85048 62.5538 3.11088C62.9232 3.35754 63.1497 3.71411 63.2335 4.1806C63.3152 4.63543 63.2269 5.04856 62.9686 5.42001C62.722 5.78937 62.3654 6.01595 61.8989 6.09975Z" fill="#FEFEFE"/>
</svg>
